<?xml version="1.0" encoding="UTF-8"?>
<!-- Generated by jsxcad -->
<!DOCTYPE svg PUBLIC "-//W3C//DTD SVG 1.1 Tiny//EN" "http://www.w3.org/Graphics/SVG/1.1/DTD/svg11-tiny.dtd">
<svg baseProfile="tiny" height="9.16913551761268mm" width="9.939759036144586mm" viewBox="-4.939759036144582 -4.52466928164898 9.939759036144586 9.16913551761268" version="1.1" stroke="black" stroke-width=".1" fill="none" xmlns="http://www.w3.org/2000/svg">
<path fill="#bababa" stroke="#bababa" d="M-1.6698595146871005 -2.2940661648871 L-1.111111111111111 -2.447351295067031 L-1.111111111111111 -4.567148249381753 L-2.4999999999999996 -4.1861252115059235 L-2.4999999999999996 -2.0663282571912016 z"/>
<path fill="#bababa" stroke="#bababa" d="M-3.0253623188405805 -1.7689251820790113 L-2.5000000000000004 -2.0663282571912007 L-2.5 -4.186125211505922 L-3.6666666666666674 -3.5256852791878166 L-3.6666666666666674 -1.405888324873096 z"/>
<path fill="#bababa" stroke="#bababa" d="M0.8749999999999999 -2.1930118443316413 L0.8749999999999999 -0.07321489001692064 L0 -0.23832487309644684 L0 -2.3581218274111673 z"/>
<path fill="#bababa" stroke="#bababa" d="M-4.065972222222222 -0.9901649746192892 L-3.6666666666666665 -1.4058883248730962 L-3.666666666666667 -3.5256852791878166 L-4.5 -2.658088722136393 L-4.5 -0.5382917678216728 z"/>
<path fill="#bababa" stroke="#bababa" d="M1.75 -1.1197969543147206 L1.75 0.9999999999999999 L1.5166666666666666 0.3808375634517766 L1.5166666666666666 -1.738959390862944 z"/>
<path fill="#bababa" stroke="#bababa" d="M0.9210784313725495 -0.04060913705583749 L0.8750000000000003 -0.0732148900169203 L0.8750000000000006 -2.193011844331641 L1.5166666666666668 -1.738959390862944 L1.516666666666667 0.3808375634517769 z"/>
<path fill="#bababa" stroke="#bababa" d="M1.5166666666666666 -0.5006345177664974 L1.5166666666666666 1.6191624365482231 L1.7499999999999998 0.9999999999999999 L1.7499999999999998 -1.1197969543147206 z"/>
<path fill="#bababa" stroke="#bababa" d="M-4.63092062908121 -0.23832487309644665 L-4.5 -0.5382917678216728 L-4.5 -2.658088722136393 L-4.939759036144578 -1.6505076142131978 L-4.939759036144578 0.4692893401015228 z"/>
<path fill="#bababa" stroke="#bababa" d="M-4.939759036144578 1 L-4.939759036144578 0.4692893401015228 L-4.939759036144578 -1.6505076142131978 L-4.939759036144578 -0.5890862944162436 L-4.939759036144578 1.530710659898477 z"/>
<path fill="#bababa" stroke="#bababa" d="M0 0.11852791878172564 L0 2.2383248730964462 L0.8749999999999999 2.07321489001692 L0.8749999999999999 -0.046582064297800575 z"/>
<path fill="#bababa" stroke="#bababa" d="M0.9210784313725486 2.0406091370558372 L1.5166666666666662 1.6191624365482231 L1.5166666666666664 -0.5006345177664975 L0.8749999999999998 -0.04658206429780027 L0.8749999999999998 2.0732148900169203 z"/>
<path fill="#bababa" stroke="#bababa" d="M-4.065972222222221 2.990164974619289 L-4.499999999999999 2.5382917678216725 L-4.499999999999999 0.41849481350695206 L-3.6666666666666665 1.2860913705583754 L-3.6666666666666665 3.405888324873096 z"/>
<path fill="#bababa" stroke="#bababa" d="M-3.0253623188405796 3.768925182079011 L-3.6666666666666665 3.405888324873096 L-3.6666666666666665 1.2860913705583752 L-2.5 1.9465313028764801 L-2.4999999999999996 4.0663282571912 z"/>
<path fill="#bababa" stroke="#bababa" d="M-1.6698595146871007 4.2940661648870995 L-2.4999999999999996 4.066328257191201 L-2.4999999999999996 1.9465313028764806 L-1.111111111111111 2.32755434075231 L-1.111111111111111 4.447351295067031 z"/>
<path fill="#bababa" stroke="#bababa" d="M0.8595183557302917 -2.447351295067032 L1.8292682926829267 -2.294066164887101 L1.8292682926829267 -4.413863119201821 L0.3703703703703703 -4.644466235963698 L0.3703703703703703 -2.524669281648978 z"/>
<path fill="#bababa" stroke="#bababa" d="M-1.111111111111111 -4.567148249381752 L-1.111111111111111 -2.447351295067032 L0.37037037037037035 -2.5246692816489777 L0.37037037037037035 -4.644466235963698 z"/>
<path fill="#bababa" stroke="#bababa" d="M2.386074272406532 -2.0663282571912025 L3.113207547169811 -1.7689251820790126 L3.113207547169811 -3.8887221363937328 L1.8292682926829267 -4.413863119201821 L1.8292682926829267 -2.294066164887101 z"/>
<path fill="#bababa" stroke="#bababa" d="M3.5874112559373703 -1.4058883248730962 L4.130434782608695 -0.990164974619289 L4.130434782608695 -3.10996192893401 L3.1132075471698113 -3.888722136393732 L3.1132075471698117 -1.768925182079011 z"/>
<path fill="#bababa" stroke="#bababa" d="M4.440790325504311 -0.5382917678216727 L4.782608695652174 -0.04060913705583752 L4.782608695652174 -2.160406091370558 L4.130434782608695 -3.10996192893401 L4.130434782608695 -0.9901649746192892 z"/>
<path fill="#bababa" stroke="#bababa" d="M0 -2.3581218274111673 L0 -0.23832487309644684 L-0.8749999999999999 -0.07321489001692064 L-0.8749999999999999 -2.1930118443316413 z"/>
<path fill="#bababa" stroke="#bababa" d="M-0.8750000000000003 -2.193011844331641 L-0.8750000000000003 -0.07321489001692065 L-1.5166666666666673 0.3808375634517764 L-1.5166666666666668 -1.7389593908629442 z"/>
<path fill="#bababa" stroke="#bababa" d="M4.870652173913043 0.38083756345177655 L4.999999999999999 0.9999999999999998 L5 -1.1197969543147206 L4.782608695652174 -2.1604060913705583 L4.782608695652174 -0.04060913705583755 z"/>
<path fill="#bababa" stroke="#bababa" d="M-1.55 0.4692893401015228 L-1.75 0.9999999999999999 L-1.75 -1.1197969543147206 L-1.5166666666666666 -1.738959390862944 L-1.5166666666666666 0.3808375634517766 z"/>
<path fill="#bababa" stroke="#bababa" d="M4.999999999999999 -1.1197969543147206 L5 0.9999999999999998 L4.782608695652174 2.0406091370558372 L4.782608695652174 -0.07918781725888323 z"/>
<path fill="#bababa" stroke="#bababa" d="M-1.5499999999999998 1.5307106598984768 L-1.5166666666666664 1.6191624365482231 L-1.5166666666666666 -0.5006345177664974 L-1.7499999999999998 -1.1197969543147206 L-1.7499999999999998 0.9999999999999999 z"/>
<path fill="#bababa" stroke="#bababa" d="M-1.5166666666666664 -0.5006345177664974 L-1.5166666666666664 1.6191624365482231 L-0.8749999999999998 2.0732148900169203 L-0.8749999999999996 -0.046582064297800305 z"/>
<path fill="#bababa" stroke="#bababa" d="M-4.901154235261656 1.6191624365482231 L-4.939759036144578 1.5307106598984768 L-4.939759036144578 -0.5890862944162435 L-4.499999999999999 0.41849481350695206 L-4.5 2.5382917678216725 z"/>
<path fill="#bababa" stroke="#bababa" d="M4.646813579511614 2.2383248730964462 L4.130434782608695 2.990164974619289 L4.130434782608695 0.8703680203045685 L4.782608695652174 -0.0791878172588832 L4.782608695652174 2.0406091370558372 z"/>
<path fill="#bababa" stroke="#bababa" d="M-0.8749999999999999 -0.046582064297800575 L-0.8749999999999999 2.07321489001692 L0 2.2383248730964462 L0 0.11852791878172564 z"/>
<path fill="#bababa" stroke="#bababa" d="M3.58741125593737 3.405888324873096 L3.1132075471698113 3.768925182079011 L3.1132075471698113 1.6491282277642902 L4.130434782608695 0.8703680203045684 L4.130434782608695 2.990164974619289 z"/>
<path fill="#bababa" stroke="#bababa" d="M2.3860742724065314 4.066328257191201 L1.8292682926829267 4.2940661648870995 L1.8292682926829267 2.1742692105723784 L3.113207547169811 1.6491282277642905 L3.113207547169811 3.7689251820790113 z"/>
<path fill="#bababa" stroke="#bababa" d="M0.37037037037037035 2.404872327334256 L0.37037037037037035 4.524669281648976 L-1.111111111111111 4.447351295067031 L-1.111111111111111 2.32755434075231 z"/>
<path fill="#bababa" stroke="#bababa" d="M0.8595183557302917 4.447351295067031 L0.37037037037037035 4.524669281648976 L0.37037037037037035 2.404872327334256 L1.8292682926829265 2.1742692105723784 L1.8292682926829265 4.294066164887099 z"/>
<path fill="#bababa" stroke="#bababa" d="M-1.6698595146871007 -4.413863119201819 L-1.111111111111111 -4.56714824938175 L0.37037037037037035 -4.644466235963697 L1.8292682926829267 -4.413863119201819 L3.1132075471698113 -3.888722136393732 L4.130434782608695 -3.10996192893401 L4.782608695652174 -2.1604060913705583 L5 -1.1197969543147206 L4.782608695652174 -0.07918781725888323 L4.130434782608695 0.8703680203045685 L3.1132075471698113 1.6491282277642902 L1.8292682926829267 2.1742692105723784 L0.37037037037037035 2.404872327334256 L-1.111111111111111 2.32755434075231 L-2.5 1.9465313028764801 L-3.6666666666666665 1.2860913705583754 L-4.5 0.41849481350695206 L-4.939759036144578 -0.5890862944162436 L-4.939759036144578 -1.6505076142131978 L-4.5 -2.658088722136393 L-3.6666666666666665 -3.5256852791878166 L-2.5 -4.186125211505921 z M0.875 -2.193011844331641 L0 -2.358121827411167 L-0.875 -2.193011844331641 L-1.5166666666666666 -1.738959390862944 L-1.75 -1.1197969543147206 L-1.5166666666666666 -0.5006345177664974 L-0.875 -0.04658206429780033 L0 0.11852791878172587 L0.875 -0.04658206429780033 L1.5166666666666666 -0.5006345177664974 L1.75 -1.1197969543147206 L1.5166666666666666 -1.738959390862944 z"/>
<path fill="#bababa" stroke="#bababa" d="M-1.111111111111111 -2.4473512950670306 L-2.5 -2.066328257191201 L-3.6666666666666665 -1.4058883248730962 L-4.5 -0.5382917678216729 L-4.939759036144578 0.4692893401015228 L-4.939759036144578 1.530710659898477 L-4.5 2.5382917678216725 L-3.6666666666666665 3.405888324873096 L-2.5 4.066328257191201 L-1.111111111111111 4.447351295067031 L0.37037037037037035 4.5246692816489755 L1.8292682926829267 4.294066164887099 L3.1132075471698113 3.768925182079011 L4.130434782608695 2.990164974619289 L4.782608695652174 2.0406091370558372 L5 0.9999999999999999 L4.782608695652174 -0.04060913705583756 L4.130434782608695 -0.9901649746192892 L3.1132075471698113 -1.7689251820790108 L1.8292682926829267 -2.294066164887099 L0.37037037037037035 -2.524669281648977 z M0.921078431372549 -0.04060913705583756 L1.5166666666666666 0.38083756345177655 L1.75 0.9999999999999999 L1.5166666666666666 1.6191624365482231 L0.875 2.0732148900169203 L0 2.2383248730964462 L-0.875 2.0732148900169203 L-1.5166666666666666 1.6191624365482231 L-1.75 0.9999999999999999 L-1.5166666666666666 0.38083756345177655 L-0.875 -0.07321489001692047 L0 -0.23832487309644668 L0.875 -0.07321489001692047 z"/>
</svg>